<svg id="icon" xmlns="http://www.w3.org/2000/svg" viewBox="0 0 512 512"><defs><style>.cls-1{fill:#e6e6e6;}.cls-2{fill:#fff;}.cls-3{fill:#ffca5f;}.cls-4{fill:#79c7e2;}.cls-5{fill:#f7899e;}.cls-6{fill:#376782;}</style></defs><title>laptop analytics</title><rect class="cls-1" x="74.54" y="102.87" width="362.91" height="249.23"/><rect class="cls-2" x="109.15" y="137.72" width="293.7" height="180.96"/><path class="cls-1" d="M37.58,352.1H474.42a0,0,0,0,1,0,0v21.41a35.62,35.62,0,0,1-35.62,35.62H73.21a35.62,35.62,0,0,1-35.62-35.62V352.1A0,0,0,0,1,37.58,352.1Z"/><path class="cls-2" d="M218.38,352.1h75.24a0,0,0,0,1,0,0v10.59a17.93,17.93,0,0,1-17.93,17.93H236.31a17.93,17.93,0,0,1-17.93-17.93V352.1A0,0,0,0,1,218.38,352.1Z"/><rect class="cls-3" x="142.52" y="256.77" width="32.39" height="29.45"/><rect class="cls-4" x="202.89" y="232.72" width="32.39" height="53.5"/><rect class="cls-5" x="263.26" y="188.55" width="32.39" height="97.67"/><path class="cls-6" d="M74.54,330.19A5.47,5.47,0,0,0,80,324.72V108.34H432V324.72a5.47,5.47,0,1,0,10.94,0V102.87a5.47,5.47,0,0,0-5.47-5.47H74.54a5.47,5.47,0,0,0-5.47,5.47V324.72A5.47,5.47,0,0,0,74.54,330.19Z"/><path class="cls-6" d="M109.15,132.25a5.47,5.47,0,0,0-5.47,5.47v181a5.47,5.47,0,0,0,5.47,5.47h293.7a5.47,5.47,0,0,0,5.47-5.47v-181a5.47,5.47,0,0,0-5.47-5.47Zm288.23,181H114.62v-170H397.38Z"/><path class="cls-6" d="M474.42,346.63H274.7a5.47,5.47,0,0,0,0,10.94h13.45v5.11a12.47,12.47,0,0,1-12.46,12.46H236.31a12.47,12.47,0,0,1-12.46-12.46v-5.11h14.54a5.47,5.47,0,0,0,0-10.94H37.58a5.47,5.47,0,0,0-5.47,5.47v21.41a41.14,41.14,0,0,0,41.1,41.09H438.79a41.14,41.14,0,0,0,41.1-41.09V352.1A5.47,5.47,0,0,0,474.42,346.63ZM469,373.51a30.19,30.19,0,0,1-30.16,30.15H73.21a30.19,30.19,0,0,1-30.16-30.15V357.57H212.91v5.11a23.42,23.42,0,0,0,23.4,23.4h39.38a23.42,23.42,0,0,0,23.4-23.4v-5.11H469Z"/><path class="cls-6" d="M142.52,291.69h32.39a5.47,5.47,0,0,0,5.47-5.47V256.77a5.47,5.47,0,0,0-5.47-5.47H142.52a5.47,5.47,0,0,0-5.47,5.47v29.45A5.47,5.47,0,0,0,142.52,291.69ZM148,262.24h21.45v18.51H148Z"/><path class="cls-6" d="M202.89,291.69h32.39a5.47,5.47,0,0,0,5.47-5.47v-53.5a5.47,5.47,0,0,0-5.47-5.47H202.89a5.47,5.47,0,0,0-5.47,5.47v53.5A5.47,5.47,0,0,0,202.89,291.69Zm5.47-53.5h21.45v42.56H208.36Z"/><path class="cls-6" d="M263.26,291.69h32.39a5.47,5.47,0,0,0,5.47-5.47V188.55a5.47,5.47,0,0,0-5.47-5.47H263.26a5.46,5.46,0,0,0-5.47,5.47v97.67A5.46,5.46,0,0,0,263.26,291.69ZM268.72,194h21.46v86.73H268.72Z"/><path class="cls-6" d="M330.86,194H369.8a5.47,5.47,0,0,0,0-10.94H330.86a5.47,5.47,0,0,0,0,10.94Z"/><path class="cls-6" d="M330.86,222.38h21.5a5.47,5.47,0,0,0,0-10.94h-21.5a5.47,5.47,0,0,0,0,10.94Z"/><path class="cls-6" d="M330.86,250.75h7.71a5.47,5.47,0,1,0,0-10.94h-7.71a5.47,5.47,0,0,0,0,10.94Z"/></svg>