<?xml version="1.0" standalone="no"?>
<!DOCTYPE svg PUBLIC "-//W3C//DTD SVG 20010904//EN"
 "http://www.w3.org/TR/2001/REC-SVG-20010904/DTD/svg10.dtd">
<svg version="1.0" xmlns="http://www.w3.org/2000/svg"
 width="1848.000000pt" height="1953.000000pt" viewBox="0 0 1848.000000 1953.000000"
 preserveAspectRatio="xMidYMid meet">

<g transform="translate(0.000000,1953.000000) scale(0.100000,-0.100000)"
fill="#000000" stroke="none">
<path d="M6800 18870 c-396 -31 -796 -143 -1129 -316 -57 -30 -110 -54 -117
-54 -8 0 -17 -7 -20 -15 -4 -8 -10 -12 -15 -9 -5 3 -9 1 -9 -4 0 -6 -10 -12
-23 -16 -12 -3 -32 -14 -44 -25 -11 -11 -24 -17 -27 -14 -3 4 -6 1 -6 -5 0 -7
-3 -11 -7 -10 -15 3 -43 -14 -37 -23 3 -5 -2 -9 -10 -9 -16 0 -32 -12 -83 -60
-14 -14 -23 -18 -19 -10 4 8 -2 3 -14 -12 -12 -16 -28 -28 -35 -28 -8 0 -19
-8 -24 -17 -6 -10 -11 -14 -11 -8 0 5 -7 -1 -16 -13 -8 -12 -19 -20 -23 -18
-4 3 -42 -27 -83 -67 -42 -40 -91 -86 -109 -103 -59 -55 -143 -147 -202 -219
-31 -38 -65 -79 -75 -90 -10 -11 -27 -33 -38 -50 -10 -16 -29 -41 -41 -55 -13
-14 -23 -29 -23 -34 0 -5 -6 -17 -14 -25 -36 -42 -86 -155 -54 -123 9 9 136
12 507 12 l496 0 63 60 c34 32 62 56 62 54 0 -3 30 19 68 49 114 91 310 215
326 205 2 -2 13 6 25 16 12 11 21 16 21 13 0 -4 15 2 33 13 17 11 40 20 50 20
9 0 17 5 17 10 0 5 3 9 8 8 16 -3 61 15 56 23 -3 5 1 9 8 10 22 1 49 7 66 15
9 4 22 8 27 9 39 7 75 19 75 24 0 4 8 7 18 8 22 1 111 21 177 39 59 16 279 34
415 34 150 0 328 -15 410 -35 14 -4 45 -11 70 -17 99 -23 353 -111 375 -130
19 -16 64 -7 96 20 18 15 33 25 33 23 2 -9 46 11 46 20 0 6 5 7 10 4 6 -3 10
-1 10 5 0 6 4 9 9 5 5 -3 17 2 25 11 9 8 16 13 16 9 0 -7 98 43 122 63 9 8 21
11 26 8 6 -3 12 1 16 9 3 8 14 15 24 15 23 0 72 22 72 33 0 5 5 5 10 2 6 -3
10 -1 10 6 0 7 3 10 6 6 4 -3 32 7 64 23 32 16 60 26 64 23 3 -4 6 -2 6 4 0
13 49 35 61 28 5 -4 9 -2 9 4 0 6 7 7 17 4 11 -4 14 -3 9 5 -5 8 -2 10 8 6 9
-3 16 -2 16 4 0 5 15 13 34 16 19 4 36 10 38 14 2 4 18 14 36 22 l33 15 -86
64 c-293 217 -685 386 -1080 466 -255 52 -588 74 -825 55z"/>
<path d="M11140 18154 c-25 -2 -110 -8 -190 -15 -311 -24 -606 -68 -895 -135
-38 -9 -88 -20 -110 -25 -22 -5 -83 -20 -135 -34 -52 -14 -110 -28 -129 -31
-18 -2 -45 -11 -60 -18 -14 -8 -40 -17 -56 -20 -60 -11 -106 -24 -118 -34 -7
-6 -30 -13 -51 -16 -22 -4 -53 -13 -70 -21 -16 -8 -33 -15 -37 -15 -4 0 -20
-5 -36 -12 -15 -6 -31 -12 -35 -13 -5 -2 -11 -4 -15 -5 -5 -1 -11 -2 -15 -1
-5 0 -8 -4 -8 -10 0 -5 -4 -7 -10 -4 -5 3 -10 2 -10 -4 0 -6 -6 -8 -14 -5 -7
3 -20 -1 -27 -9 -13 -13 -19 -15 -36 -18 -23 -4 -31 -6 -58 -18 -84 -38 -101
-45 -113 -47 -7 -1 -32 -11 -55 -22 -23 -11 -52 -23 -64 -26 -13 -4 -23 -12
-23 -17 0 -6 -4 -8 -8 -5 -10 6 -547 -258 -557 -274 -3 -6 -11 -8 -16 -4 -5 3
-22 -3 -37 -13 -22 -15 -46 -18 -132 -18 -111 0 -187 18 -242 57 -16 11 -28
16 -28 13 0 -4 -7 1 -16 9 -8 9 -22 16 -30 16 -8 0 -16 0 -19 0 -2 1 -28 11
-57 24 -60 26 -200 61 -303 76 -92 13 -299 13 -405 -1 -101 -12 -334 -68 -338
-80 -2 -5 -8 -7 -12 -4 -8 5 -42 -9 -140 -54 -112 -52 -238 -142 -338 -241
-106 -106 -133 -136 -158 -175 -10 -16 -24 -36 -31 -43 -33 -34 -79 -113 -129
-217 -30 -63 -54 -116 -53 -117 0 -2 -9 -27 -20 -56 -22 -55 -53 -166 -66
-237 -5 -22 -10 -49 -12 -60 -9 -43 -11 -393 -3 -440 18 -102 42 -211 52 -230
5 -11 10 -30 11 -43 0 -12 5 -22 9 -22 4 0 8 -9 8 -21 0 -11 18 -58 40 -104
22 -46 40 -87 40 -90 0 -4 14 -26 30 -50 17 -24 30 -46 30 -49 0 -22 120 -175
201 -255 75 -75 256 -221 274 -221 2 0 35 -18 71 -41 58 -35 106 -60 124 -63
3 -1 10 -4 15 -7 6 -4 28 -12 50 -19 22 -7 45 -16 50 -21 6 -4 26 -11 45 -14
41 -8 50 -10 70 -17 52 -19 89 -24 104 -16 11 6 16 6 14 -3 -3 -12 14 -18 77
-25 71 -8 145 -6 158 3 14 12 109 6 117 -7 3 -5 24 -8 45 -5 22 2 43 4 48 4 4
1 7 9 8 19 0 15 1 15 7 1 7 -17 50 -19 102 -5 14 3 39 9 55 11 28 5 48 11 100
31 11 4 27 8 36 10 9 2 29 9 45 15 16 7 38 14 49 16 10 2 22 7 25 12 3 4 21
13 41 20 20 6 68 32 108 56 40 25 75 45 78 45 2 0 22 14 43 31 25 20 37 37 33
48 -4 13 -3 13 5 2 9 -12 13 -12 26 -2 8 7 14 18 13 24 -1 6 5 12 13 12 32 2
52 18 47 37 -4 13 -1 18 8 15 16 -7 57 21 50 34 -4 5 1 9 9 9 8 0 17 4 21 9 3
6 -4 8 -15 6 -11 -2 -18 0 -15 6 4 5 10 7 14 5 10 -7 51 22 51 36 0 5 -7 7
-16 4 -9 -3 -12 -2 -9 4 4 6 12 10 18 9 24 -3 35 1 41 17 3 8 2 12 -4 9 -13
-8 -1 25 19 50 9 11 23 20 31 20 8 0 14 8 14 17 -1 10 2 15 7 12 11 -6 29 37
21 50 -3 5 0 6 6 2 8 -5 12 0 12 13 0 13 5 19 14 15 7 -3 16 2 20 12 4 12 2
15 -9 10 -12 -4 -13 -2 -3 14 9 14 14 16 20 7 8 -13 11 -3 8 26 -1 9 2 16 7
15 4 -2 9 1 10 6 1 5 6 12 13 16 6 4 13 13 15 21 9 39 18 59 28 59 6 0 7 3 4
7 -4 3 -3 11 2 17 15 18 52 136 46 147 -4 5 -1 9 5 9 7 0 9 7 6 16 -3 8 -2 12
4 9 6 -3 11 2 11 12 1 10 3 27 5 38 2 11 6 31 8 45 2 14 5 25 6 25 2 0 4 16 5
35 2 19 6 46 9 60 4 14 8 58 9 97 1 40 5 73 9 73 4 0 4 12 2 28 -6 27 -13 131
-17 232 -1 30 2 73 7 95 15 70 15 69 31 55 12 -10 20 -9 42 6 26 16 315 162
408 204 128 59 178 80 191 80 8 0 14 5 14 10 0 6 7 10 15 10 8 0 44 13 79 30
36 16 78 32 93 36 15 4 33 10 38 14 6 4 25 11 43 15 17 3 32 10 32 14 0 4 6 8
13 9 18 1 38 7 70 20 16 7 34 12 42 12 8 0 16 4 19 9 7 10 95 35 114 32 6 -1
12 2 12 6 0 5 11 10 25 11 14 1 39 9 55 17 16 8 42 17 57 19 16 2 48 9 73 16
25 8 50 15 55 16 6 1 55 14 110 29 99 26 116 29 185 40 19 3 44 8 55 12 11 3
31 7 45 9 14 1 36 5 50 8 14 4 40 7 58 8 17 1 32 4 32 7 0 3 21 7 48 9 26 1
56 4 67 7 11 2 24 4 28 4 5 1 6 5 2 10 -3 5 -1 12 4 15 5 3 11 0 14 -7 6 -15
63 -14 60 1 -1 5 7 12 17 15 11 3 18 2 15 -3 -6 -10 43 -23 57 -14 6 4 49 8
96 9 54 1 87 6 90 13 2 7 10 9 20 4 21 -10 428 -9 438 1 12 11 34 8 31 -5 -3
-18 132 -18 150 0 13 13 14 13 11 -4 -2 -15 3 -19 32 -20 19 -1 41 4 48 9 10
8 16 7 22 -2 8 -13 30 -18 100 -22 19 -1 39 -5 44 -7 5 -3 23 -6 40 -8 17 -2
42 -6 56 -9 14 -3 43 -8 65 -11 22 -3 57 -10 78 -15 21 -6 50 -12 65 -14 46
-7 105 -20 150 -34 17 -5 32 -8 32 -5 0 2 17 -3 38 -10 20 -8 55 -18 77 -22
43 -8 43 -8 65 -17 37 -14 160 -47 177 -47 10 0 27 -7 37 -15 11 -8 29 -15 40
-15 25 0 89 -22 97 -33 3 -5 9 -8 13 -7 8 2 143 -47 168 -61 10 -5 22 -9 28
-9 5 0 38 -13 72 -29 35 -15 74 -32 88 -36 14 -4 48 -21 77 -36 29 -16 59 -29
68 -29 9 0 30 -9 46 -21 16 -11 29 -17 29 -12 0 4 4 2 9 -5 4 -7 14 -14 22
-15 8 -2 21 -7 29 -12 8 -6 38 -22 65 -36 98 -52 220 -121 236 -135 8 -8 19
-14 24 -14 4 0 48 -27 97 -60 49 -33 92 -60 97 -60 4 0 19 -9 32 -20 12 -12
39 -31 59 -43 19 -12 46 -32 60 -44 14 -13 27 -23 31 -23 3 0 23 -16 45 -36
21 -19 51 -43 67 -52 15 -9 27 -20 27 -24 0 -4 6 -8 13 -8 7 0 19 -9 27 -20 8
-11 17 -20 21 -20 4 0 42 -34 85 -75 44 -41 82 -75 85 -75 11 0 260 -257 360
-370 101 -115 230 -282 322 -415 87 -127 177 -265 177 -271 0 -4 10 -21 23
-38 13 -17 27 -38 30 -46 4 -8 20 -37 37 -65 16 -27 55 -102 87 -165 32 -63
61 -117 66 -118 4 -2 5 -7 2 -12 -3 -4 2 -13 10 -20 8 -7 15 -16 15 -21 0 -5
21 -52 46 -105 25 -53 61 -135 80 -182 19 -47 38 -90 43 -96 4 -6 11 -20 14
-31 7 -29 67 -196 77 -220 9 -19 32 -75 35 -85 1 -3 7 -25 14 -50 7 -25 18
-51 23 -57 6 -7 8 -13 5 -13 -3 0 -1 -15 5 -32 74 -233 151 -577 183 -818 3
-25 8 -61 10 -80 33 -240 38 -745 9 -965 -6 -44 -8 -62 -18 -145 -4 -30 -9
-61 -12 -69 -2 -8 -7 -30 -10 -50 -20 -143 -93 -436 -149 -601 -25 -74 -47
-139 -48 -145 -3 -11 -49 -131 -68 -180 -7 -16 -13 -32 -14 -35 -15 -45 -28
-73 -95 -212 -28 -59 -51 -110 -50 -114 1 -4 -2 -10 -7 -13 -10 -7 -16 -18
-78 -141 -27 -52 -52 -97 -55 -100 -4 -3 -10 -12 -13 -20 -4 -8 -26 -45 -50
-82 -23 -37 -66 -107 -96 -155 -30 -48 -60 -91 -66 -95 -7 -4 -16 -19 -19 -33
-4 -14 -10 -25 -15 -25 -5 0 -22 -21 -37 -47 -15 -27 -30 -50 -34 -53 -4 -3
-24 -30 -45 -60 -21 -30 -51 -68 -67 -85 -15 -16 -28 -33 -28 -37 0 -4 -11
-20 -25 -35 -14 -15 -54 -62 -88 -103 -34 -41 -71 -85 -82 -97 -11 -11 -54
-58 -95 -104 -104 -114 -256 -262 -391 -381 -113 -100 -322 -273 -413 -343
-43 -33 -85 -66 -93 -74 -8 -7 -17 -10 -20 -7 -6 5 11 106 42 262 8 35 33 231
47 354 19 175 16 721 -5 895 -23 196 -61 400 -98 535 -193 697 -595 1227
-1204 1585 -88 52 -307 165 -319 165 -3 0 -34 13 -68 29 -252 114 -727 238
-1098 285 -364 47 -662 46 -1010 -4 -471 -67 -932 -238 -1332 -496 -439 -283
-808 -660 -1123 -1144 -109 -167 -129 -190 -170 -190 -43 0 -71 32 -203 230
-92 138 -268 373 -323 430 -8 8 -56 61 -107 117 -217 237 -532 485 -831 652
-908 509 -1898 577 -3041 209 -229 -74 -487 -191 -677 -306 -52 -31 -110 -65
-131 -75 -43 -22 -265 -242 -373 -372 -202 -242 -343 -455 -477 -725 -165
-329 -214 -486 -253 -812 -117 -980 31 -1877 444 -2678 77 -150 196 -313 364
-498 41 -45 315 -314 608 -597 l533 -515 1545 0 1544 0 12 28 c46 99 114 292
297 843 114 343 210 627 213 631 7 8 180 -336 578 -1142 172 -348 254 -501
375 -700 85 -140 160 -265 167 -277 17 -33 25 -29 43 25 9 26 99 272 201 547
101 275 194 534 206 575 43 143 53 175 58 190 4 8 7 17 8 20 7 24 29 97 31
105 1 6 9 29 18 53 8 23 16 46 17 50 1 4 3 12 5 17 2 6 20 66 40 135 61 210
98 329 101 326 2 -2 42 -140 56 -191 2 -11 24 -87 47 -170 23 -82 46 -163 50
-180 4 -16 38 -138 74 -270 37 -132 90 -324 118 -427 l52 -188 1615 0 1616 1
160 151 c342 323 615 590 615 600 0 13 122 167 132 168 7 0 76 30 158 69 19 9
37 19 38 24 2 4 12 7 22 7 20 0 43 23 33 34 -4 4 0 4 10 0 16 -6 42 5 130 54
20 12 37 18 37 14 0 -4 4 -2 8 3 8 11 36 28 107 63 28 14 52 28 55 31 7 9 59
38 110 61 24 12 47 25 50 29 3 4 36 25 73 47 142 81 157 92 150 112 -4 13 -3
14 5 4 10 -14 36 -3 116 52 21 14 43 26 48 26 5 0 7 10 4 23 -3 12 -3 16 0 10
8 -18 20 -16 56 10 58 41 66 50 61 66 -4 13 -3 13 5 2 8 -12 16 -10 48 10 22
13 44 28 49 34 6 6 28 23 50 38 22 15 65 46 97 70 161 121 211 162 218 181 5
12 9 15 9 8 1 -7 39 19 86 59 47 39 82 76 78 82 -4 6 -1 7 6 2 14 -8 64 33 56
46 -3 4 0 11 6 15 8 4 9 3 5 -4 -16 -26 12 -10 47 27 31 32 34 39 17 36 -26
-5 -17 11 10 18 11 3 20 0 20 -6 0 -6 14 2 30 18 17 16 28 35 25 43 -2 7 -1
11 4 7 11 -6 53 27 144 114 52 51 66 70 61 86 -5 16 -4 18 7 8 18 -18 143 109
134 136 -4 14 -1 18 17 17 15 -1 29 9 43 31 11 18 25 32 30 33 18 1 61 53 48
57 -21 7 -15 26 7 20 14 -4 31 9 65 49 26 30 41 54 33 54 -10 0 -10 2 2 9 8 6
18 7 22 5 4 -3 8 -1 8 5 0 5 3 17 7 27 5 13 3 15 -7 9 -9 -5 -11 -4 -6 4 6 9
11 9 22 0 12 -10 13 -9 8 6 -6 13 -4 16 5 10 19 -11 33 16 18 34 -10 12 -8 13
12 6 20 -6 23 -5 17 10 -5 13 -2 16 10 11 15 -6 15 -4 3 10 -12 15 -12 17 1
12 17 -5 40 14 40 33 0 7 -6 4 -15 -7 -8 -10 -15 -14 -15 -8 0 12 32 44 44 44
4 0 4 -6 0 -13 -5 -7 -1 -7 10 2 11 9 16 24 13 38 -3 17 0 23 14 23 11 0 19 5
19 11 0 5 -6 7 -12 4 -7 -4 -4 1 6 9 11 9 24 16 29 16 5 0 6 7 3 16 -4 10 -2
13 6 8 7 -5 9 -2 5 8 -3 9 3 24 14 34 12 11 19 13 19 5 0 -7 5 -9 10 -6 8 5 8
11 0 20 -7 8 -7 15 -1 19 5 3 12 0 15 -6 4 -7 4 -3 2 9 -2 13 1 26 6 30 7 3 8
1 4 -5 -4 -7 -3 -12 2 -12 16 0 22 13 11 26 -8 9 -5 11 9 7 18 -4 34 17 37 49
0 3 4 10 9 15 5 5 6 2 1 -6 -6 -10 -4 -12 4 -6 7 4 11 16 8 26 -3 11 -2 17 1
15 4 -2 12 2 19 9 10 11 10 15 0 18 -9 4 -9 6 1 6 6 1 12 8 12 16 0 8 5 15 11
15 5 0 7 -4 4 -10 -3 -5 -4 -10 0 -10 7 0 73 104 77 121 2 7 11 22 21 34 10
11 26 33 34 50 9 16 22 36 30 44 8 7 12 22 10 32 -3 12 0 16 9 12 10 -4 12 0
8 11 -7 18 19 49 32 38 5 -4 2 2 -6 12 -14 18 -13 19 2 13 13 -4 20 2 30 28 6
19 15 35 18 35 12 0 30 49 24 65 -5 11 -2 13 12 8 12 -4 15 -3 10 5 -4 7 -2
12 3 12 6 0 11 9 11 20 0 11 5 20 11 20 5 0 7 5 4 10 -3 6 -1 10 5 10 6 0 8 5
5 11 -4 5 1 19 11 30 9 10 13 19 8 19 -5 0 -2 5 8 10 10 6 14 18 11 32 -3 16
-2 19 5 10 6 -10 15 1 32 40 13 29 23 57 22 61 -1 4 5 15 13 24 9 8 14 22 11
30 -4 9 -2 11 6 7 7 -5 9 -2 5 9 -3 8 1 21 9 28 9 7 13 21 11 31 -3 10 -2 16
3 13 7 -4 16 9 25 35 10 30 38 96 57 133 5 11 4 17 -4 17 -10 0 -10 2 -1 8 6
4 19 21 27 37 12 22 13 31 3 37 -8 5 -6 8 7 8 11 0 16 3 13 7 -4 3 -2 12 4 19
6 7 11 28 12 47 1 19 5 33 8 31 4 -2 9 6 13 19 3 12 5 22 4 22 -1 0 4 10 11
22 9 18 9 23 -1 23 -10 0 -10 2 -1 8 23 14 86 220 77 249 -4 13 -3 14 3 5 7
-9 20 29 42 120 18 73 34 149 37 168 3 19 7 42 10 50 3 8 8 26 10 40 3 14 11
61 19 105 8 44 17 98 20 120 3 22 9 54 12 70 4 17 7 37 8 45 12 83 16 121 25
220 30 329 38 597 25 895 -8 180 -12 258 -15 265 -1 3 -2 19 -2 35 1 36 -15
187 -24 230 -3 17 -6 47 -7 68 0 20 -3 37 -7 37 -3 0 -6 17 -7 38 0 53 -28
232 -40 262 -6 16 -7 22 -16 80 -3 19 -11 55 -17 80 -6 25 -13 61 -17 80 -3
19 -10 44 -15 54 -6 11 -12 33 -13 50 -5 56 -140 504 -174 581 -5 11 -19 48
-31 83 -12 34 -26 62 -31 62 -5 0 -8 3 -8 8 1 4 0 9 -1 12 -1 3 -3 13 -5 23
-4 23 -66 171 -74 177 -3 3 -7 12 -9 20 -4 17 -64 143 -71 150 -3 3 -7 12 -9
20 -6 26 -45 100 -54 100 -4 0 -8 7 -8 16 0 23 -89 184 -101 184 -6 0 -8 4 -4
10 3 5 -5 26 -18 47 -13 21 -27 45 -30 53 -4 8 -15 27 -25 41 -9 14 -30 47
-47 73 -16 27 -35 53 -40 60 -6 6 -17 25 -24 43 -7 17 -21 39 -32 49 -10 9
-19 23 -19 30 0 7 -4 14 -8 16 -4 2 -24 30 -45 63 -20 33 -48 74 -63 90 -15
17 -44 57 -66 90 -21 32 -57 78 -78 102 -22 23 -40 45 -40 48 0 4 -21 33 -47
65 -27 31 -55 67 -63 79 -8 11 -20 21 -28 21 -7 0 -11 4 -7 9 3 6 -8 20 -25
32 -16 13 -30 28 -30 35 0 7 -11 21 -25 32 -14 11 -25 23 -25 26 0 4 -12 19
-27 35 -74 76 -114 121 -109 121 10 0 -96 98 -112 105 -8 3 -12 8 -9 11 6 7
-17 34 -30 36 -4 0 -17 13 -28 27 -29 38 -74 81 -85 81 -6 0 -10 7 -10 15 0 8
-10 20 -22 26 -13 7 -38 28 -56 48 -19 20 -38 35 -44 33 -5 -1 -12 5 -15 15
-2 10 -24 33 -49 52 -24 18 -44 37 -44 42 0 5 -7 9 -15 9 -8 0 -15 4 -15 9 0
5 -30 33 -67 63 -38 29 -78 64 -90 77 -13 13 -23 21 -23 17 0 -4 -7 -1 -15 6
-94 81 -105 90 -105 83 0 -3 -10 5 -23 19 -13 14 -29 26 -36 28 -8 2 -24 13
-37 26 -13 12 -29 22 -36 22 -7 0 -28 16 -47 35 -19 19 -38 32 -43 29 -4 -3
-11 2 -14 10 -3 9 -12 16 -20 16 -7 0 -18 8 -23 18 -6 9 -11 13 -11 9 0 -4 -9
0 -19 10 -11 10 -37 27 -58 38 -21 11 -42 25 -46 32 -4 7 -16 13 -25 13 -10 0
-25 9 -35 20 -10 12 -23 18 -29 14 -6 -4 -8 -3 -5 3 4 6 -12 20 -37 32 -25 11
-47 25 -51 31 -3 6 -11 8 -16 5 -5 -4 -9 -2 -9 2 0 5 -16 15 -35 22 -19 7 -35
17 -35 22 0 5 -3 8 -7 7 -5 -1 -26 9 -48 23 -22 13 -43 23 -47 21 -5 -1 -8 2
-8 8 0 5 -9 10 -21 10 -11 0 -18 4 -15 8 2 4 -10 14 -27 21 -18 7 -57 25 -87
39 -29 15 -61 27 -69 29 -7 1 -18 8 -22 15 -5 7 -9 9 -9 5 0 -5 -10 -1 -22 7
-12 9 -30 16 -40 16 -9 0 -23 6 -30 14 -8 7 -29 17 -46 21 -18 3 -32 10 -32
14 0 4 -10 7 -22 8 -11 1 -25 8 -29 15 -5 7 -9 9 -9 3 0 -5 -5 -4 -12 3 -7 7
-17 12 -24 12 -6 0 -32 9 -58 20 -25 12 -48 21 -51 20 -3 0 -18 6 -35 15 -32
16 -179 66 -355 120 -373 114 -834 202 -1205 230 -47 4 -96 9 -110 12 -30 6
-727 12 -790 7z m210 -1044 c0 -5 -2 -10 -4 -10 -3 0 -8 5 -11 10 -3 6 -1 10
4 10 6 0 11 -4 11 -10z m75 0 c3 -5 -1 -10 -10 -10 -9 0 -13 5 -10 10 3 6 8
10 10 10 2 0 7 -4 10 -10z m-370 -20 c-3 -5 -11 -10 -16 -10 -6 0 -7 5 -4 10
3 6 11 10 16 10 6 0 7 -4 4 -10z m976 -28 c-7 -2 -18 1 -23 6 -8 8 -4 9 13 5
13 -4 18 -8 10 -11z m-1874 -128 c-3 -3 -12 -4 -19 -1 -8 3 -5 6 6 6 11 1 17
-2 13 -5z m-1402 -554 c-3 -5 -12 -10 -18 -10 -7 0 -6 4 3 10 19 12 23 12 15
0z m-45 -34 c0 -2 -7 -7 -16 -10 -8 -3 -12 -2 -9 4 6 10 25 14 25 6z m8180
-7130 c0 -3 -4 -8 -10 -11 -5 -3 -10 -1 -10 4 0 6 5 11 10 11 6 0 10 -2 10 -4z
m-260 -431 c-7 -8 -17 -15 -22 -15 -6 0 -5 7 2 15 7 8 17 15 22 15 6 0 5 -7
-2 -15z m-511 -672 c-6 -7 -18 -13 -26 -13 -11 0 -11 3 -1 13 7 8 18 14 25 14
9 0 10 -4 2 -14z m-42 -38 c0 -8 -4 -12 -9 -9 -4 3 -8 0 -8 -7 0 -7 -3 -9 -6
-6 -4 4 -1 13 6 22 15 19 17 19 17 0z m-147 -161 c0 -8 -5 -12 -10 -9 -6 4 -8
11 -5 16 9 14 15 11 15 -7z m-50 -59 c-7 -8 -18 -15 -24 -15 -6 0 -2 7 8 15
25 19 32 19 16 0z m-186 -189 c-3 -8 -13 -17 -22 -21 -13 -5 -13 -2 3 15 21
24 26 25 19 6z m-84 -81 c-18 -19 -36 -32 -39 -28 -3 3 0 8 7 10 6 3 9 10 6
15 -4 6 -2 8 3 5 6 -4 18 2 28 13 10 11 21 20 24 20 2 0 -10 -16 -29 -35z
m-540 -459 c0 -3 -4 -8 -10 -11 -5 -3 -10 -1 -10 4 0 6 5 11 10 11 6 0 10 -2
10 -4z m-1320 -836 c-8 -5 -19 -10 -25 -10 -5 0 -3 5 5 10 8 5 20 10 25 10 6
0 3 -5 -5 -10z"/>
<path d="M4428 17372 c-14 -26 -41 -77 -61 -114 -20 -38 -33 -68 -29 -68 8 0
125 220 120 226 -3 2 -16 -18 -30 -44z"/>
<path d="M4320 17169 c0 -5 -10 -31 -21 -57 -46 -99 -58 -132 -50 -132 4 0 19
28 33 63 14 34 33 79 42 100 9 21 12 37 6 37 -5 0 -10 -5 -10 -11z"/>
<path d="M4235 16960 c-3 -5 -1 -10 4 -10 6 0 11 5 11 10 0 6 -2 10 -4 10 -3
0 -8 -4 -11 -10z"/>
<path d="M4217 16910 c-3 -11 -1 -20 4 -20 5 0 9 9 9 20 0 11 -2 20 -4 20 -2
0 -6 -9 -9 -20z"/>
<path d="M4199 16853 c-5 -14 -8 -30 -6 -36 1 -5 8 7 14 27 13 42 7 49 -8 9z"/>
<path d="M4177 16783 c-4 -3 -7 -11 -7 -17 0 -6 5 -5 12 2 6 6 9 14 7 17 -3 3
-9 2 -12 -2z"/>
<path d="M4159 16724 c-5 -15 -7 -29 -5 -32 5 -4 10 6 22 46 7 23 -7 12 -17
-14z"/>
<path d="M4131 16614 c-17 -68 -33 -155 -29 -160 3 -2 14 40 26 94 20 95 23
141 3 66z"/>
<path d="M4092 16410 c0 -19 2 -27 5 -17 2 9 2 25 0 35 -3 9 -5 1 -5 -18z"/>
<path d="M4081 16354 c0 -11 3 -14 6 -6 3 7 2 16 -1 19 -3 4 -6 -2 -5 -13z"/>
<path d="M4072 16270 c-1 -19 -5 -46 -8 -60 -5 -21 -4 -23 6 -7 6 9 9 36 7 60
-3 39 -4 39 -5 7z"/>
<path d="M4062 16150 c0 -19 2 -27 5 -17 2 9 2 25 0 35 -3 9 -5 1 -5 -18z"/>
<path d="M4056 16088 c-7 -26 -8 -73 -2 -67 6 6 18 89 13 89 -3 0 -7 -10 -11
-22z"/>
<path d="M4053 15960 c0 -30 2 -43 4 -27 2 15 2 39 0 55 -2 15 -4 2 -4 -28z"/>
<path d="M9175 15898 c-6 -22 -17 -183 -11 -177 3 3 8 36 11 75 3 38 8 79 11
92 5 23 -4 31 -11 10z"/>
<path d="M4050 15844 c0 -27 5 -56 10 -64 7 -10 9 3 6 44 -6 73 -16 86 -16 20z"/>
<path d="M4064 15665 c7 -87 9 -103 32 -245 15 -95 30 -162 41 -190 4 -8 7
-22 8 -30 3 -35 29 -120 37 -120 5 0 6 -4 3 -10 -7 -11 60 -217 77 -237 6 -7
7 -13 2 -13 -4 0 -3 -5 4 -12 7 -7 12 -19 12 -29 0 -9 38 -92 84 -185 197
-395 411 -672 731 -945 90 -76 255 -200 280 -210 6 -2 42 -25 80 -50 96 -63
318 -174 460 -231 84 -34 317 -107 358 -114 22 -3 50 -9 63 -15 14 -5 28 -8
32 -7 4 1 20 -2 37 -7 16 -5 39 -9 50 -9 11 -1 25 -4 30 -8 10 -6 130 -23 270
-38 56 -6 291 -6 558 -1 16 0 33 4 39 7 10 6 62 12 117 14 12 0 28 3 35 7 6 4
29 9 51 10 22 2 47 6 55 9 8 4 22 7 30 8 40 3 138 28 162 41 14 8 33 12 41 9
8 -3 18 -1 21 5 4 6 13 8 21 4 8 -3 15 -1 15 4 0 5 12 10 27 11 15 1 29 6 32
11 3 5 22 12 41 16 51 10 123 36 141 52 9 7 19 10 22 6 4 -3 7 -1 7 5 0 6 6 9
14 6 7 -3 21 2 29 11 9 9 19 16 21 16 20 0 235 103 246 117 3 4 14 12 25 19
372 221 692 514 932 853 184 260 341 581 426 875 43 147 85 347 91 438 l6 67
-394 0 c-217 0 -401 3 -410 6 -11 4 -16 0 -16 -14 0 -67 -94 -400 -135 -479
-8 -15 -15 -36 -15 -45 0 -10 -4 -18 -10 -18 -5 0 -10 -6 -10 -14 0 -8 -14
-40 -31 -70 -16 -31 -27 -56 -24 -56 3 0 -3 -10 -15 -22 -11 -12 -20 -27 -20
-34 0 -7 -11 -25 -25 -40 -14 -15 -23 -34 -20 -41 2 -8 1 -12 -3 -9 -4 2 -23
-19 -42 -47 -19 -29 -38 -53 -42 -55 -5 -2 -8 -9 -8 -16 0 -7 -16 -27 -35 -46
-19 -19 -35 -38 -35 -43 0 -5 -17 -25 -37 -46 -21 -20 -51 -52 -68 -71 -16
-19 -55 -57 -85 -83 -30 -27 -49 -45 -41 -41 9 5 12 3 7 -4 -4 -7 -13 -12 -20
-12 -7 0 -22 -11 -32 -25 -10 -14 -24 -25 -30 -25 -5 0 -23 -13 -39 -30 -15
-16 -31 -27 -35 -25 -5 3 -10 -1 -13 -8 -3 -8 -21 -22 -41 -31 -20 -9 -36 -21
-36 -27 0 -6 -4 -8 -8 -5 -5 3 -16 -4 -25 -15 -9 -10 -26 -19 -37 -19 -12 0
-19 -4 -16 -9 7 -11 -166 -101 -304 -156 -534 -215 -1162 -194 -1689 56 -146
69 -269 141 -363 213 -45 33 -94 70 -109 82 -16 11 -26 24 -22 27 3 4 -1 7
-10 7 -9 0 -21 9 -27 20 -6 11 -15 20 -21 20 -5 0 -19 9 -31 20 -12 11 -19 20
-15 20 3 0 -4 10 -16 23 -12 13 -24 22 -27 21 -3 -1 -14 8 -25 19 -11 11 -13
16 -5 12 8 -5 -2 8 -22 28 -21 20 -38 41 -38 47 0 5 -7 10 -15 10 -8 0 -14 4
-13 9 2 4 -6 17 -17 27 -12 11 -14 15 -5 9 8 -5 3 4 -11 20 -14 17 -32 38 -40
48 -8 10 -21 27 -31 37 -9 10 -14 20 -12 22 2 3 -11 22 -29 44 -31 37 -47 63
-53 91 -1 6 -11 22 -23 34 -20 21 -25 34 -22 52 0 4 -4 7 -11 7 -6 0 -8 3 -5
7 4 3 3 11 -2 17 -5 6 -14 28 -21 49 -7 23 -16 35 -23 30 -7 -3 -9 -2 -4 2 4
5 0 19 -8 32 -9 13 -13 28 -10 33 3 6 1 10 -4 10 -6 0 -11 11 -11 24 0 13 -7
29 -15 36 -8 6 -14 15 -13 18 3 26 -4 62 -11 58 -5 -3 -8 0 -8 7 2 27 -16 96
-24 92 -4 -3 -8 3 -7 12 0 10 -3 29 -7 43 -4 14 -9 37 -12 53 -3 15 -9 27 -13
27 -4 0 -6 11 -5 25 2 14 -1 25 -5 25 -5 0 -7 11 -4 25 l4 25 -408 -2 -408 -3
-1 30 c-1 42 -14 129 -20 135 -3 3 -3 -31 1 -75z"/>
<path d="M9156 15688 c-8 -31 -7 -38 2 -38 5 0 9 14 10 30 1 36 -3 38 -12 8z"/>
<path d="M9153 15624 c-3 -8 -1 -20 6 -27 8 -8 11 -4 9 16 -3 31 -6 34 -15 11z"/>
<path d="M8310 15005 c-7 -8 -8 -15 -2 -15 5 0 15 7 22 15 7 8 8 15 2 15 -5 0
-15 -7 -22 -15z"/>
<path d="M7041 5318 c-30 -72 -93 -246 -140 -387 l-87 -256 -1423 -5 -1424 -5
484 -465 c620 -595 618 -593 724 -686 76 -66 1349 -1341 2422 -2423 l281 -284
41 6 c38 5 61 24 258 214 119 114 302 292 407 395 105 103 260 254 344 335 84
82 213 207 287 278 73 72 204 198 290 280 86 83 216 209 290 280 73 72 204
198 290 280 86 83 216 209 290 280 73 72 204 198 290 280 86 83 216 209 290
280 74 72 201 194 282 272 81 78 218 209 303 292 85 82 204 193 265 248 60 54
121 108 135 121 l25 22 -1497 0 -1497 0 -6 23 c-4 12 -17 45 -30 72 -12 28
-35 88 -50 135 -15 47 -31 88 -34 93 -4 4 -19 -34 -34 -85 -46 -157 -93 -313
-162 -543 -37 -121 -75 -249 -85 -285 -10 -36 -28 -96 -40 -135 -12 -38 -34
-110 -50 -160 -15 -49 -44 -142 -63 -205 -20 -63 -54 -178 -77 -255 -41 -136
-59 -184 -60 -158 0 13 -198 416 -636 1298 -199 401 -296 585 -401 757 -76
125 -140 227 -143 228 -3 0 -29 -59 -59 -132z"/>
</g>
</svg>
