<?xml version="1.0" ?><!DOCTYPE svg  PUBLIC '-//W3C//DTD SVG 1.1//EN'  'http://www.w3.org/Graphics/SVG/1.1/DTD/svg11.dtd'><svg enable-background="new 0 0 64 64" height="64px" version="1.1" viewBox="0 0 64 64" width="64px" xml:space="preserve" xmlns="http://www.w3.org/2000/svg" xmlns:xlink="http://www.w3.org/1999/xlink"><g id="Blood_x2C__infected_x2C__test_1_"><g id="XMLID_1569_"><g id="XMLID_1570_"><path d="M56,32c0,13.257-10.743,24-24,24C18.742,56,8,45.257,8,32S18.742,8,32,8     C45.257,8,56,18.743,56,32z" fill="#ECEFF1" id="XMLID_1571_"/></g></g><g><path d="M56.67,56.731L56.67,56.731c-2.733,2.734-7.165,2.734-9.899,0L11.33,21.29l9.899-9.9    l35.44,35.441C59.404,49.565,59.404,53.997,56.67,56.731z" fill="#FFFFFF" id="XMLID_150_"/></g><path d="M48.771,53.731L13.83,18.79l-2.5,2.5l35.44,35.441c2.734,2.734,7.166,2.734,9.899,0   c0.788-0.787,1.341-1.717,1.675-2.706C55.595,56.453,51.399,56.36,48.771,53.731z" fill="#ECEFF1" id="XMLID_1222_"/><path d="M22.644,9.976L9.915,22.704c-0.39,0.391-1.023,0.391-1.414,0l-3.535-3.536   c-0.391-0.391-0.391-1.023,0-1.414L17.693,5.026c0.391-0.391,1.023-0.391,1.414,0l3.536,3.536   C23.034,8.952,23.034,9.585,22.644,9.976z" fill="#FFD740" id="XMLID_1638_"/><path d="M13.782,18.837l8.861-8.861c0.391-0.391,0.391-1.023,0-1.414l-3.536-3.536   c-0.242-0.243-0.576-0.316-0.89-0.257l-9.252,9.252L13.782,18.837z" fill="#FFE57F" id="XMLID_1580_"/><path d="M22.644,8.562l-3.536-3.536c-0.242-0.243-0.576-0.316-0.89-0.257l-9.252,9.252l0.25,0.25   l8.002-8.002c0.313-0.059,0.647,0.015,0.89,0.257l3.536,3.536c0.177,0.176,0.262,0.404,0.278,0.635l0.722-0.721   C23.034,9.585,23.034,8.953,22.644,8.562z" fill="#FFFFFF" id="XMLID_1583_"/><path d="M9.208,23.497c-0.4,0-0.777-0.156-1.061-0.439l-3.535-3.536c-0.585-0.585-0.585-1.536,0-2.121L17.34,4.673   C17.623,4.39,18,4.233,18.4,4.233l0,0c0.4,0,0.777,0.156,1.061,0.439l3.536,3.536c0.283,0.283,0.439,0.66,0.439,1.061   c0,0.4-0.156,0.777-0.439,1.061L10.269,23.058C9.986,23.341,9.609,23.497,9.208,23.497z M18.4,5.233   c-0.134,0-0.259,0.052-0.354,0.146L5.319,18.108c-0.195,0.195-0.195,0.512,0,0.707l3.535,3.536c0.189,0.188,0.518,0.189,0.707,0   L22.29,9.623c0.095-0.095,0.146-0.22,0.146-0.354c0-0.134-0.052-0.259-0.146-0.353L18.754,5.38   C18.659,5.286,18.534,5.233,18.4,5.233z" fill="#37474F"/><g><path d="M20.876,9.623l-2.829-2.829L20.876,9.623z" fill="#FFFFFF" id="XMLID_145_"/><rect fill="#37474F" height="1" transform="matrix(0.7072 0.707 -0.707 0.7072 11.5025 -11.3565)" width="4.001" x="17.461" y="7.708"/></g><g><path d="M19.461,11.037l-2.828-2.828L19.461,11.037z" fill="#FFFFFF" id="XMLID_144_"/><rect fill="#37474F" height="1" transform="matrix(0.7071 0.7071 -0.7071 0.7071 12.09 -9.9427)" width="4" x="16.047" y="9.123"/></g><g><path d="M18.047,12.451l-2.828-2.829L18.047,12.451z" fill="#FFFFFF" id="XMLID_142_"/><rect fill="#37474F" height="1" transform="matrix(0.707 0.7072 -0.7072 0.707 12.6776 -8.5289)" width="4" x="14.633" y="10.537"/></g><g><path d="M16.633,13.865l-2.828-2.829L16.633,13.865z" fill="#FFFFFF" id="XMLID_134_"/><rect fill="#37474F" height="1" transform="matrix(0.707 0.7072 -0.7072 0.707 13.2633 -7.1147)" width="4" x="13.219" y="11.951"/></g><g><path d="M15.219,15.279l-2.828-2.828L15.219,15.279z" fill="#FFFFFF" id="XMLID_133_"/><rect fill="#37474F" height="1" transform="matrix(0.7071 0.7071 -0.7071 0.7071 13.8475 -5.7004)" width="4" x="11.805" y="13.365"/></g><g><path d="M13.805,16.694l-2.828-2.829L13.805,16.694z" fill="#FFFFFF" id="XMLID_128_"/><rect fill="#37474F" height="1" transform="matrix(0.707 0.7072 -0.7072 0.707 14.4351 -4.286)" width="4" x="10.391" y="14.78"/></g><g><path d="M12.391,18.108l-2.829-2.829L12.391,18.108z" fill="#FFFFFF" id="XMLID_126_"/><rect fill="#37474F" height="1" transform="matrix(0.7072 0.707 -0.707 0.7072 15.0173 -2.8722)" width="4.001" x="8.976" y="16.194"/></g><g><path d="M9.562,20.937l-2.828-2.829L9.562,20.937z" fill="#FFFFFF" id="XMLID_125_"/><rect fill="#37474F" height="1" transform="matrix(0.707 0.7072 -0.7072 0.707 16.1923 -0.0425)" width="4" x="6.148" y="19.022"/></g><g><path d="M8.147,16.694l2.829,2.828L8.147,16.694z" fill="#FFFFFF" id="XMLID_124_"/><rect fill="#37474F" height="1" transform="matrix(0.7072 0.707 -0.707 0.7072 15.6015 -1.4587)" width="4" x="7.562" y="17.608"/></g><path d="M47.831,55.67c1.039,1.039,2.421,1.611,3.89,1.611s2.85-0.572,3.889-1.611   s1.611-2.42,1.611-3.889c0-1.469-0.572-2.85-1.611-3.889L37.728,30.011C37.577,30.007,37.438,30,37.278,30   c-2.85,0-4.296,0.523-5.694,1.03C30.205,31.529,28.903,32,26.229,32c-0.865,0-1.577-0.053-2.204-0.137L47.831,55.67z" fill="#FF8A80" id="XMLID_1631_"/><path d="M53.221,55.781c-1.469,0-2.851-0.572-3.89-1.611l-22.19-22.191   C26.854,31.992,26.553,32,26.229,32c-0.865,0-1.577-0.053-2.204-0.137L47.831,55.67c1.039,1.039,2.421,1.611,3.89,1.611   s2.85-0.572,3.889-1.611c0.255-0.255,0.479-0.531,0.677-0.823C55.387,55.454,54.329,55.781,53.221,55.781z" fill="#FF5252" id="XMLID_1633_"/><g id="XMLID_2286_"><path d="M57.023,46.478l-2.006-2.006c-0.285,0.192-0.585,0.363-0.893,0.521l2.191,2.191    c1.228,1.228,1.904,2.86,1.904,4.596c0,1.736-0.677,3.368-1.904,4.596c-1.228,1.228-2.859,1.904-4.596,1.904    s-3.368-0.676-4.597-1.904L12.037,21.29l9.192-9.193l20.777,20.778c0.158-0.308,0.329-0.607,0.521-0.893L21.229,10.683    L10.623,21.29l35.794,35.794c1.417,1.417,3.301,2.197,5.304,2.197s3.887-0.78,5.303-2.197c1.417-1.417,2.197-3.3,2.197-5.303    C59.221,49.778,58.44,47.895,57.023,46.478z" fill="#37474F"/><circle cx="50" cy="37" fill="#B2FF59" id="XMLID_2289_" r="7.5"/><path d="M50,45c-4.411,0-8-3.589-8-8s3.589-8,8-8c1.727,0,3.371,0.542,4.756,1.566L54.16,31.37    C52.949,30.474,51.511,30,50,30c-3.859,0-7,3.14-7,7s3.141,7,7,7s7-3.14,7-7c0-1.542-0.491-3.005-1.422-4.23l0.797-0.604    C57.438,33.565,58,35.237,58,37C58,41.411,54.411,45,50,45z" fill="#37474F"/><polygon fill="#37474F" points="49.885,39.977 46.229,35.717 46.989,35.066 49.873,38.427 56.794,30.106 57.563,30.746   "/></g></g></svg>