<?xml version="1.0" ?><!DOCTYPE svg  PUBLIC '-//W3C//DTD SVG 1.1//EN'  'http://www.w3.org/Graphics/SVG/1.1/DTD/svg11.dtd'><svg enable-background="new 0 0 64 64" height="64px" version="1.1" viewBox="0 0 64 64" width="64px" xml:space="preserve" xmlns="http://www.w3.org/2000/svg" xmlns:xlink="http://www.w3.org/1999/xlink"><g id="coronavirus_x2C__covid_19_x2C__news_x2C__virus_x2C__document"><g id="algorithm_3_"><g id="taxes_1_"><g id="algorithm_4_"><g id="News__x26__Events_2_"><g id="XMLID_1546_"><g id="XMLID_1547_"><g id="XMLID_1548_"><g id="XMLID_1553_"><path d="M46.5,5.5h-37c-2.209,0-4,1.791-4,4v0.998h37V9.5C42.5,7.291,44.291,5.5,46.5,5.5           z" fill="#CFD8DC" id="XMLID_1554_"/></g><g id="XMLID_1549_"><path d="M9.5,5h37v1C44.57,6,43,7.57,43,9.5V11H5V9.5C5,7.019,7.019,5,9.5,5z M43.674,6           H9.5C7.57,6,6,7.57,6,9.5V10h36V9.5C42,8.088,42.654,6.825,43.674,6z" fill="#37474F" id="XMLID_1550_"/></g></g></g></g></g></g><path d="M13.5,54.498c0,2.209,1.791,4.002,4,4.002h34v-49c0-2.209-1.791-4-4-4h-38     c2.209,0,4,1.791,4,4V54.498z" fill="#FFFFFF" id="XMLID_1545_"/><path d="M12.6,7C13.154,7.687,13,8.549,13,9.5v44.998C13,56.707,15.291,59,17.5,59H52V9.5     c0-0.951-0.846-1.813-1.4-2.5H12.6z" fill="#ECEFF1" id="XMLID_1544_"/><g id="XMLID_1542_"><path d="M45.041,58H17.5c-1.93,0-3.5-1.571-3.5-3.502V9.5c0-1.412-0.653-2.675-1.675-3.5H47.5      C49.43,6,51,7.57,51,9.5V54h1V9.5C52,7.019,49.981,5,47.5,5h-38v1C11.43,6,13,7.57,13,9.5v44.998C13,56.98,15.019,59,17.5,59      h27.541V58z" fill="#37474F" id="XMLID_1543_"/></g><path d="M17.5,58.498h38c2.209,0,4-1.791,4-4V53.5h-38v0.998     C21.5,56.707,19.709,58.498,17.5,58.498z" fill="#FFFFFF" id="XMLID_1541_"/><path d="M21.449,55c-0.249,1.97-1.912,3-3.949,3h38c2.037,0,3.7-1.03,3.949-3H21.449z" fill="#CFD8DC" id="XMLID_1540_"/><path d="M55.5,58.998h-38v-1c1.93,0,3.5-1.57,3.5-3.5V53h39v1.498     C60,56.979,57.981,58.998,55.5,58.998z M20.326,57.998H55.5c1.93,0,3.5-1.57,3.5-3.5V54H22v0.498     C22,55.91,21.346,57.173,20.326,57.998z" fill="#37474F" id="XMLID_1537_"/></g></g><g id="XMLID_1534_"><g id="XMLID_1557_"><g id="XMLID_1837_"><path d="M42.381,20.75L35.619,35.25L42.381,20.75z" fill="#CCFF90" id="XMLID_1839_"/><rect fill="#37474F" height="15.531" transform="matrix(0.9062 0.4228 -0.4228 0.9062 15.4166 -13.9261)" width="1" x="38.599" y="20.022"/></g><g id="XMLID_1564_"><path d="M46.518,25.264l-15.035,5.473L46.518,25.264z" fill="#CCFF90" id="XMLID_1836_"/><rect fill="#37474F" height="14.41" transform="matrix(0.3419 0.9397 -0.9397 0.3419 52.1213 -18.5025)" width="1" x="38.771" y="20.757"/></g><g id="XMLID_1561_"><path d="M46.25,31.381l-14.501-6.762L46.25,31.381z" fill="#CCFF90" id="XMLID_1563_"/><rect fill="#37474F" height="1" transform="matrix(0.9063 0.4226 -0.4226 0.9063 15.4868 -13.8583)" width="16" x="31" y="27.5"/></g><g id="XMLID_1558_"><path d="M41.736,35.518l-5.473-15.035L41.736,35.518z" fill="#CCFF90" id="XMLID_1560_"/><rect fill="#37474F" height="1" transform="matrix(0.325 0.9457 -0.9457 0.325 53.1617 -17.725)" width="15.351" x="31.322" y="27.877"/></g></g><g><circle cx="39" cy="28" fill="#FF8A80" id="XMLID_88_" r="5"/><path d="M39,33.5c-3.032,0-5.5-2.467-5.5-5.5s2.468-5.5,5.5-5.5s5.5,2.467,5.5,5.5S42.032,33.5,39,33.5z M39,23.5     c-2.481,0-4.5,2.019-4.5,4.5s2.019,4.5,4.5,4.5s4.5-2.019,4.5-4.5S41.481,23.5,39,23.5z" fill="#37474F"/></g><rect fill="#37474F" height="1" id="XMLID_1555_" width="1" x="38" y="26"/><rect fill="#37474F" height="1" id="XMLID_1536_" width="1" x="41" y="28"/><rect fill="#37474F" height="1" id="XMLID_1535_" width="1" x="37" y="29"/></g><g><rect fill="#CFD8DC" height="6" id="XMLID_87_" width="28" x="18.5" y="11.5"/><path d="M47,18H18v-7h29V18z M19,17h27v-5H19V17z" fill="#37474F"/></g><g><path d="M42,46.5H18H42z" fill="#CFD8DC" id="XMLID_86_"/><rect fill="#37474F" height="1" width="24" x="18" y="46"/></g><g><path d="M47,43.5H18H47z" fill="#CFD8DC" id="XMLID_85_"/><rect fill="#37474F" height="1" width="29" x="18" y="43"/></g><g><path d="M47,40.5H18H47z" fill="#CFD8DC" id="XMLID_84_"/><rect fill="#37474F" height="1" width="29" x="18" y="40"/></g><g><path d="M47,37.5H18H47z" fill="#CFD8DC" id="XMLID_83_"/><rect fill="#37474F" height="1" width="29" x="18" y="37"/></g><g><path d="M29,34.5H18H29z" fill="#CFD8DC" id="XMLID_82_"/><rect fill="#37474F" height="1" width="11" x="18" y="34"/></g><g><path d="M29,31.5H18H29z" fill="#CFD8DC" id="XMLID_81_"/><rect fill="#37474F" height="1" width="11" x="18" y="31"/></g><g><path d="M29,28.5H18H29z" fill="#CFD8DC" id="XMLID_80_"/><rect fill="#37474F" height="1" width="11" x="18" y="28"/></g><g><path d="M29,25.5H18H29z" fill="#CFD8DC" id="XMLID_79_"/><rect fill="#37474F" height="1" width="11" x="18" y="25"/></g><g><path d="M29,22.5H18H29z" fill="#CFD8DC" id="XMLID_78_"/><rect fill="#37474F" height="1" width="11" x="18" y="22"/></g></g></svg>